# xmcd CD database file
#
# Track frame offsets:
#	150
#	25944
#	48862
#	65662
#	83095
#	102105
#	122082
#	141008
#	168358
#	189552
#	212653
#	235694
#	252653
#	270331
#	289255
#
# Disc length: 4177 seconds
#
# Revision: 0
# Processed by: cddbd v1.5.1PL2 Copyright (c) Steve Scherf et al.
# Submitted via: CDex 1.51
#
DISCID=d2104f0f
DTITLE=La Foot Creole - Days Beyond Recall
DYEAR=1900
DGENRE=Jazz
TTITLE0=Where the River Shannon Flows
TTITLE1=Moose March
TTITLE2=Ugly Chile
TTITLE3=Together
TTITLE4=Oh, You Beautiful Doll
TTITLE5=Days Beyond Recall
TTITLE6=333 Bourbon Street
TTITLE7=San
TTITLE8=Arkansas Blues
TTITLE9=I Never Knew
TTITLE10=Blues in C For Tenor
TTITLE11=You Were Meant For Me
TTITLE12=St. Phillip Street Breakdown
TTITLE13=Sensation Rag
TTITLE14=I Love You So Much It Hurts
EXTD=
EXTT0=
EXTT1=
EXTT2=
EXTT3=
EXTT4=
EXTT5=
EXTT6=
EXTT7=
EXTT8=
EXTT9=
EXTT10=
EXTT11=
EXTT12=
EXTT13=
EXTT14=
PLAYORDER=
